# Blender v3.2.1 OBJ File: 'props.blend'
# www.blender.org
mtllib Prop_Card.mtl
o Prop_Card_Plane
v 2.000000 0.049999 3.500000
v -1.972550 0.049999 3.440005
v 2.000000 0.050001 -3.500000
v -2.000000 0.050001 -3.500000
v 2.000000 -0.000001 3.500000
v -1.972550 -0.000001 3.440005
v 2.000000 0.000001 -3.500000
v -2.000000 0.000001 -3.500000
v 2.040005 0.050001 -3.361935
v 2.040005 0.049999 3.361935
v 2.040005 0.000001 -3.361935
v 2.040005 -0.000001 3.361935
v -2.040005 0.049999 3.361935
v -2.040005 0.050001 -3.361935
v -2.040005 -0.000001 3.361935
v -2.040005 0.000001 -3.361935
v 1.972550 0.049999 3.440005
v -2.000000 0.049999 3.500000
v -1.972550 0.050001 -3.440005
v 1.972550 0.050001 -3.440005
v 1.972550 -0.000001 3.440005
v -2.000000 -0.000001 3.500000
v -1.972550 0.000001 -3.440005
v 1.972550 0.000001 -3.440005
v 2.100000 0.050001 -3.384264
v 2.100000 0.049999 3.384264
v 2.100000 0.000001 -3.384264
v 2.100000 -0.000001 3.384264
v -2.100000 0.049999 3.384264
v -2.100000 0.050001 -3.384264
v -2.100000 -0.000001 3.384264
v -2.100000 0.000001 -3.384264
v 1.972550 0.050000 0.000000
v -1.972550 0.050000 0.000000
v 1.972550 -0.000000 0.000000
v -1.972550 0.000000 0.000000
v 2.100000 0.050000 0.000000
v 2.100000 -0.000000 0.000000
v -2.100000 0.050000 0.000000
v -2.100000 0.000000 0.000000
v 2.040005 0.050000 0.000000
v 2.040005 -0.000000 0.000000
v -2.040005 0.050000 0.000000
v -2.040005 0.000000 0.000000
v 0.000000 0.049999 3.500000
v 0.000000 0.050001 -3.500000
v 0.000000 -0.000001 3.500000
v 0.000000 0.000001 -3.500000
v 0.000000 0.049999 3.440005
v 0.000000 0.050001 -3.440005
v 0.000000 -0.000001 3.440005
v 0.000000 0.000001 -3.440005
v 0.000000 0.000000 0.000000
v 0.000000 0.050000 0.000000
vt 0.257194 0.409855
vt 0.257165 0.804199
vt 0.031870 0.803807
vt 0.031900 0.409463
vt 0.756291 0.407032
vt 0.981585 0.407423
vt 0.981556 0.801768
vt 0.756261 0.801376
vt 0.257171 0.810720
vt 0.486237 0.810734
vt 0.486270 0.818730
vt 0.257204 0.818716
vt 0.257218 0.008989
vt 0.028152 0.008975
vt 0.028118 0.000979
vt 0.257184 0.000993
vt 0.028104 0.810707
vt 0.028138 0.818703
vt 0.003677 0.818806
vt 0.003644 0.810809
vt 0.510697 0.810631
vt 0.510731 0.818627
vt 0.500000 0.408492
vt 0.500000 0.022177
vt 0.513485 0.022080
vt 0.513485 0.408395
vt 0.530996 0.406641
vt 0.530967 0.800985
vt 0.521714 0.792110
vt 0.521728 0.407569
vt 0.482489 0.410246
vt 0.482518 0.015902
vt 0.491771 0.024777
vt 0.491757 0.409317
vt 0.486284 0.009002
vt 0.486250 0.001006
vt 0.510711 0.000904
vt 0.510745 0.008900
vt 0.014388 0.411217
vt 0.014388 0.797532
vt 0.000904 0.797629
vt 0.000904 0.411314
vt 0.003691 0.009078
vt 0.003657 0.001082
vt 0.981614 0.013079
vt 0.990867 0.021954
vt 0.990853 0.406495
vt 0.022618 0.794932
vt 0.022631 0.410392
vt 0.257223 0.015510
vt 0.031929 0.015119
vt 0.482459 0.804590
vt 0.756320 0.012688
vt 0.531025 0.012297
vt 0.527248 0.006153
vt 0.756314 0.006166
vt 0.985333 0.807911
vt 0.756267 0.807898
vt 0.513485 0.794710
vt 0.491743 0.793858
vt 0.500000 0.794807
vt 0.527201 0.807884
vt 0.521742 0.023029
vt 0.999096 0.019354
vt 0.999096 0.405669
vt 0.990840 0.791036
vt 0.999096 0.791984
vt 0.022645 0.025851
vt 0.014388 0.024902
vt 0.985380 0.006180
vt 0.000904 0.024999
vn 0.0000 1.0000 0.0000
vn -0.0000 -1.0000 -0.0000
vn 0.0000 0.7071 -0.7071
vn 0.3250 0.6244 -0.7103
vn 0.3250 -0.6244 -0.7103
vn -0.0000 -0.7071 -0.7071
vn 0.0000 0.7071 0.7071
vn -0.3250 0.6244 0.7103
vn -0.3250 -0.6244 0.7103
vn -0.0000 -0.7071 0.7071
vn -0.3250 0.6244 -0.7103
vn -0.3250 -0.6244 -0.7103
vn -0.7229 -0.6364 -0.2691
vn -0.7229 0.6364 -0.2691
vn 0.7229 0.6364 -0.2691
vn 0.7229 -0.6364 -0.2691
vn 0.7071 0.7071 0.0000
vn 0.7229 0.6364 0.2691
vn 0.7229 -0.6364 0.2691
vn 0.7071 -0.7071 -0.0000
vn 0.3250 0.6244 0.7103
vn 0.3250 -0.6244 0.7103
vn -0.7071 0.7071 0.0000
vn -0.7071 -0.7071 -0.0000
vn -0.7229 0.6364 0.2691
vn -0.7229 -0.6364 0.2691
usemtl Prop_Card_Mat
s 1
f 54/1/1 50/2/1 19/3/1 34/4/1
f 53/5/2 36/6/2 23/7/2 52/8/2
f 46/9/3 3/10/4 7/11/5 48/12/6
f 45/13/7 18/14/8 22/15/9 47/16/10
f 4/17/11 8/18/12 32/19/13 30/20/14
f 7/11/5 3/10/4 25/21/15 27/22/16
f 37/23/17 26/24/18 28/25/19 38/26/20
f 35/27/2 24/28/2 11/29/2 42/30/2
f 33/31/1 17/32/1 10/33/1 41/34/1
f 1/35/21 5/36/22 28/37/19 26/38/18
f 39/39/23 30/40/14 32/41/13 40/42/24
f 22/15/9 18/14/8 29/43/25 31/44/26
f 36/6/2 6/45/2 15/46/2 44/47/2
f 34/4/1 19/3/1 14/48/1 43/49/1
f 49/50/1 2/51/1 18/14/8 45/13/7
f 50/2/1 20/52/1 3/10/4 46/9/3
f 51/53/2 21/54/2 5/55/22 47/56/10
f 52/8/2 23/7/2 8/57/12 48/58/6
f 41/34/1 10/33/1 26/24/18 37/23/17
f 42/30/2 11/29/2 27/59/16 38/26/20
f 20/52/1 9/60/1 25/61/15 3/10/4
f 11/29/2 24/28/2 7/62/5 27/59/16
f 21/54/2 12/63/2 28/25/19 5/55/22
f 10/33/1 17/32/1 1/35/21 26/24/18
f 43/49/1 14/48/1 30/40/14 39/39/23
f 44/47/2 15/46/2 31/64/26 40/65/24
f 23/7/2 16/66/2 32/67/13 8/57/12
f 14/48/1 19/3/1 4/17/11 30/40/14
f 2/51/1 13/68/1 29/69/25 18/14/8
f 15/46/2 6/45/2 22/70/9 31/64/26
f 16/66/2 44/47/2 40/65/24 32/67/13
f 13/68/1 43/49/1 39/39/23 29/69/25
f 12/63/2 42/30/2 38/26/20 28/25/19
f 9/60/1 41/34/1 37/23/17 25/61/15
f 2/51/1 34/4/1 43/49/1 13/68/1
f 23/7/2 36/6/2 44/47/2 16/66/2
f 29/69/25 39/39/23 40/42/24 31/71/26
f 20/52/1 33/31/1 41/34/1 9/60/1
f 21/54/2 35/27/2 42/30/2 12/63/2
f 25/61/15 37/23/17 38/26/20 27/59/16
f 51/53/2 6/45/2 36/6/2 53/5/2
f 49/50/1 54/1/1 34/4/1 2/51/1
f 17/32/1 33/31/1 54/1/1 49/50/1
f 21/54/2 51/53/2 53/5/2 35/27/2
f 24/28/2 52/8/2 48/58/6 7/62/5
f 6/45/2 51/53/2 47/56/10 22/70/9
f 19/3/1 50/2/1 46/9/3 4/17/11
f 17/32/1 49/50/1 45/13/7 1/35/21
f 1/35/21 45/13/7 47/16/10 5/36/22
f 4/17/11 46/9/3 48/12/6 8/18/12
f 35/27/2 53/5/2 52/8/2 24/28/2
f 33/31/1 20/52/1 50/2/1 54/1/1
