<?xml version="1.0" encoding="UTF-8" standalone="no"?>
<svg
   xmlns:dc="http://purl.org/dc/elements/1.1/"
   xmlns:cc="http://creativecommons.org/ns#"
   xmlns:rdf="http://www.w3.org/1999/02/22-rdf-syntax-ns#"
   xmlns:svg="http://www.w3.org/2000/svg"
   xmlns="http://www.w3.org/2000/svg"
   xmlns:sodipodi="http://sodipodi.sourceforge.net/DTD/sodipodi-0.dtd"
   xmlns:inkscape="http://www.inkscape.org/namespaces/inkscape"
   width="43.109261mm"
   height="48.082859mm"
   viewBox="0 0 43.109261 48.082859"
   version="1.1"
   id="svg8"
   inkscape:version="1.0.2 (e86c870879, 2021-01-15)"
   sodipodi:docname="Spade.svg">
  <defs
     id="defs2" />
  <sodipodi:namedview
     id="base"
     pagecolor="#ffffff"
     bordercolor="#666666"
     borderopacity="1.0"
     inkscape:pageopacity="0.0"
     inkscape:pageshadow="2"
     inkscape:zoom="1.979899"
     inkscape:cx="-29.899907"
     inkscape:cy="107.67217"
     inkscape:document-units="mm"
     inkscape:current-layer="layer1"
     inkscape:document-rotation="0"
     showgrid="false"
     inkscape:window-width="1920"
     inkscape:window-height="1016"
     inkscape:window-x="1920"
     inkscape:window-y="27"
     inkscape:window-maximized="1"
     fit-margin-top="0"
     fit-margin-left="0"
     fit-margin-right="0"
     fit-margin-bottom="0"
     inkscape:pagecheckerboard="true" />
  <metadata
     id="metadata5">
    <rdf:RDF>
      <cc:Work
         rdf:about="">
        <dc:format>image/svg+xml</dc:format>
        <dc:type
           rdf:resource="http://purl.org/dc/dcmitype/StillImage" />
        <dc:title></dc:title>
      </cc:Work>
    </rdf:RDF>
  </metadata>
  <g
     inkscape:label="Layer 1"
     inkscape:groupmode="layer"
     id="layer1"
     transform="translate(-83.445367,-124.45857)">
    <path
       id="path856"
       style="fill:#ffffff;stroke-width:0.25146"
       d="m 104.91515,125.65099 -1.20818,2.00972 c -1.91521,3.18661 -4.72654,6.47869 -10.037298,11.75282 -5.202536,5.16667 -6.474623,6.68272 -7.753034,9.24117 -1.201622,2.40478 -1.639915,4.62179 -1.279894,6.47511 0.647206,3.33168 2.794674,6.40805 5.327816,7.6327 3.803554,1.83884 8.996327,0.94032 12.27196,-2.12366 0.60299,-0.56404 0.91737,-0.84912 1.08147,-0.91743 0.1714,2.99789 -1.96686,7.82162 -3.698235,10.16646 -0.496149,0.64864 -0.902212,1.24272 -0.902212,1.32017 0,0.0775 2.827127,0.14096 6.282577,0.14096 3.45546,0 6.28259,-0.0635 6.28259,-0.14096 0,-0.0775 -0.40607,-0.67153 -0.90222,-1.32017 -1.66677,-3.10381 -3.99115,-6.67516 -3.69823,-10.16646 0.1641,0.0684 0.47847,0.35339 1.08147,0.91743 3.27562,3.06398 8.4684,3.9625 12.27196,2.12366 2.53314,-1.22465 4.6806,-4.30102 5.32781,-7.6327 0.36002,-1.85332 -0.0783,-4.07033 -1.27989,-6.47511 -1.27842,-2.55845 -2.5505,-4.0745 -7.75303,-9.24117 -5.31076,-5.27413 -8.12209,-8.56621 -10.03731,-11.75282 l -1.20818,-2.00972 c -0.0274,0.14978 -0.0569,0.32813 -0.0849,0.48475 -0.028,-0.15662 -0.0575,-0.33497 -0.085,-0.48475 z m -0.94493,13.07398 h 2.25332 l 5.13726,12.98852 c 0.87236,2.25361 1.16345,2.5198 2.73855,2.76213 v 0.75144 h -6.80957 v -0.75144 l 0.19401,-0.024 c 1.23585,-0.16964 1.72044,-0.50906 1.72044,-1.18757 0,-0.19386 -0.0971,-0.60551 -0.26669,-1.04169 l -1.21162,-3.12607 h -6.25165 l -0.77549,2.08389 c -0.29079,0.77543 -0.46069,1.42964 -0.46069,1.79312 0,0.43618 0.24257,0.87255 0.60606,1.11488 0.26656,0.16962 0.67863,0.26634 1.551,0.3875 v 0.75144 h -6.494258 v -0.75144 l 0.266194,-0.0482 c 1.62357,-0.31501 2.01131,-0.87269 3.634879,-5.01643 z m 0.55743,2.05981 -2.68994,7.26927 h 5.45207 z" />
  </g>
</svg>
