<?xml version="1.0" encoding="UTF-8" standalone="no"?>
<svg
   xmlns:dc="http://purl.org/dc/elements/1.1/"
   xmlns:cc="http://creativecommons.org/ns#"
   xmlns:rdf="http://www.w3.org/1999/02/22-rdf-syntax-ns#"
   xmlns:svg="http://www.w3.org/2000/svg"
   xmlns="http://www.w3.org/2000/svg"
   xmlns:sodipodi="http://sodipodi.sourceforge.net/DTD/sodipodi-0.dtd"
   xmlns:inkscape="http://www.inkscape.org/namespaces/inkscape"
   width="43.109261mm"
   height="48.082859mm"
   viewBox="0 0 43.109261 48.082859"
   version="1.1"
   id="svg8"
   inkscape:version="1.0.2 (e86c870879, 2021-01-15)"
   sodipodi:docname="Spade.svg">
  <defs
     id="defs2" />
  <sodipodi:namedview
     id="base"
     pagecolor="#ffffff"
     bordercolor="#666666"
     borderopacity="1.0"
     inkscape:pageopacity="0.0"
     inkscape:pageshadow="2"
     inkscape:zoom="1.979899"
     inkscape:cx="92.32855"
     inkscape:cy="107.67217"
     inkscape:document-units="mm"
     inkscape:current-layer="layer1"
     inkscape:document-rotation="0"
     showgrid="false"
     inkscape:window-width="1458"
     inkscape:window-height="1016"
     inkscape:window-x="1970"
     inkscape:window-y="27"
     inkscape:window-maximized="0"
     fit-margin-top="0"
     fit-margin-left="0"
     fit-margin-right="0"
     fit-margin-bottom="0" />
  <metadata
     id="metadata5">
    <rdf:RDF>
      <cc:Work
         rdf:about="">
        <dc:format>image/svg+xml</dc:format>
        <dc:type
           rdf:resource="http://purl.org/dc/dcmitype/StillImage" />
        <dc:title />
      </cc:Work>
    </rdf:RDF>
  </metadata>
  <g
     inkscape:label="Layer 1"
     inkscape:groupmode="layer"
     id="layer1"
     transform="translate(-83.445367,-124.45857)">
    <path
       id="path856"
       style="fill:#000000;stroke-width:0.999999"
       d="M 81.128906 0 L 76.324219 7.9921875 C 68.707866 20.664641 57.527863 33.756434 36.408203 54.730469 C 15.718914 75.277114 10.66012 81.306094 5.5761719 91.480469 C 0.7976018 101.04373 -0.94539093 109.86024 0.48632812 117.23047 C 3.0601184 130.47979 11.600106 142.7138 21.673828 147.58398 C 36.799686 154.89661 57.450145 151.32338 70.476562 139.13867 C 72.874559 136.8956 74.124771 135.76191 74.777344 135.49023 C 75.458944 147.41219 66.955599 166.59503 60.070312 175.91992 C 58.09724 178.49941 56.482422 180.86193 56.482422 181.16992 C 56.482422 181.47795 67.725266 181.73047 81.466797 181.73047 C 95.208328 181.73047 106.45117 181.47803 106.45117 181.16992 C 106.45117 180.86189 104.83635 178.49941 102.86328 175.91992 C 96.234935 163.57678 86.9914 149.37437 88.15625 135.49023 C 88.808823 135.76198 90.059034 136.8956 92.457031 139.13867 C 105.48344 151.32338 126.13391 154.89661 141.25977 147.58398 C 151.33349 142.7138 159.87348 130.47979 162.44727 117.23047 C 163.87899 109.86024 162.1358 101.04373 157.35742 91.480469 C 152.27343 81.306094 147.21468 75.277114 126.52539 54.730469 C 105.40573 33.756434 94.225728 20.664641 86.609375 7.9921875 L 81.804688 0 C 81.695459 0.59561575 81.578293 1.304906 81.466797 1.9277344 C 81.355301 1.304906 81.238135 0.59561575 81.128906 0 z M 77.371094 51.992188 L 86.332031 51.992188 L 106.76172 103.64453 C 110.23092 112.60663 111.38851 113.66524 117.65234 114.62891 L 117.65234 117.61719 L 90.572266 117.61719 L 90.572266 114.62891 L 91.34375 114.5332 C 96.258447 113.85864 98.185547 112.50881 98.185547 109.81055 C 98.185547 109.03961 97.799566 107.40257 97.125 105.66797 L 92.306641 93.236328 L 67.445312 93.236328 L 64.361328 101.52344 C 63.204929 104.60717 62.529297 107.2088 62.529297 108.6543 C 62.529297 110.3889 63.493954 112.12422 64.939453 113.08789 C 65.999486 113.76246 67.638224 114.14707 71.107422 114.62891 L 71.107422 117.61719 L 45.28125 117.61719 L 45.28125 114.62891 L 46.339844 114.4375 C 52.796407 113.18473 54.338359 110.96697 60.794922 94.488281 L 77.371094 51.992188 z M 79.587891 60.183594 L 68.890625 89.091797 L 90.572266 89.091797 L 79.587891 60.183594 z "
       transform="matrix(0.26458333,0,0,0.26458333,83.445367,124.45857)" />
  </g>
</svg>
