# Blender 3.1.0
# www.blender.org
o CollisionBodyCenter
v 0.345306 4.719104 1.735969
v 0.983347 4.719104 1.471683
v 1.471683 4.719104 0.983347
v 1.735968 4.719104 0.345306
v 1.735968 4.719104 -0.345306
v 1.471683 4.719104 -0.983347
v 0.983347 4.719104 -1.471683
v 0.345305 4.719104 -1.735968
v -0.345306 4.719104 -1.735968
v -0.983347 4.719104 -1.471683
v -1.471683 4.719104 -0.983347
v -1.735968 4.719104 -0.345305
v -1.735968 4.719104 0.345306
v -1.471682 4.719104 0.983347
v -0.983347 4.719104 1.471683
v -0.345305 4.719104 1.735968
v 0.577318 0.158541 -2.902373
v 1.644063 0.158541 -2.460513
v 2.460513 0.158542 -1.644062
v 2.902373 0.158541 -0.577317
v 2.902372 0.158541 0.577318
v 2.460512 0.158541 1.644063
v 1.644061 0.158541 2.460513
v 0.577317 0.158542 2.902372
v -0.577318 0.158541 2.902372
v -1.644062 0.158541 2.460511
v -2.460512 0.158541 1.644060
v -2.902371 0.158541 0.577317
v -2.902371 0.158541 -0.577318
v -2.460510 0.158542 -1.644062
v -1.644060 0.158541 -2.460511
v -0.577316 0.158541 -2.902370
v 0.000000 4.719104 0.000000
v 0.000001 0.158542 -0.000000
vn 0.2912 0.1053 0.2912
vn 0.3805 0.1053 0.1576
vn 0.4118 0.1053 -0.0000
vn 0.3805 0.1053 -0.1576
vn 0.2912 0.1053 -0.2912
vn 0.1576 0.1053 -0.3805
vn -0.0000 0.1053 -0.4118
vn -0.1576 0.1053 -0.3805
vn -0.2912 0.1053 -0.2912
vn -0.3805 0.1053 -0.1576
vn -0.4118 0.1053 -0.0000
vn -0.3805 0.1053 0.1576
vn -0.2912 0.1053 0.2912
vn -0.1576 0.1053 0.3805
vn -0.0000 0.1053 0.4118
vn 0.1576 0.1053 0.3805
vn -0.0000 0.4251 -0.0000
vn -0.0000 -0.4251 -0.0000
vt 0.000000 0.000000
vt 0.000000 0.000000
vt 0.000000 0.000000
vt 0.000000 0.000000
vt 0.000000 0.000000
vt 0.000000 0.000000
vt 0.000000 0.000000
vt 0.000000 0.000000
vt 0.000000 0.000000
vt 0.000000 0.000000
vt 0.000000 0.000000
vt 0.000000 0.000000
vt 0.000000 0.000000
vt 0.000000 0.000000
vt 0.000000 0.000000
vt 0.000000 0.000000
vt 0.000000 0.000000
vt 0.000000 0.000000
vt 0.000000 0.000000
vt 0.000000 0.000000
vt 0.000000 0.000000
vt 0.000000 0.000000
vt 0.000000 0.000000
vt 0.000000 0.000000
vt 0.000000 0.000000
vt 0.000000 0.000000
vt 0.000000 0.000000
vt 0.000000 0.000000
vt 0.000000 0.000000
vt 0.000000 0.000000
vt 0.000000 0.000000
vt 0.000000 0.000000
vt 0.000000 0.000000
vt 0.000000 0.000000
s 0
f 23/23/1 22/22/1 3/3/1 2/2/1
f 22/22/2 21/21/2 4/4/2 3/3/2
f 21/21/3 20/20/3 5/5/3 4/4/3
f 20/20/4 19/19/4 6/6/4 5/5/4
f 19/19/5 18/18/5 7/7/5 6/6/5
f 18/18/6 17/17/6 8/8/6 7/7/6
f 17/17/7 32/32/7 9/9/7 8/8/7
f 32/32/8 31/31/8 10/10/8 9/9/8
f 31/31/9 30/30/9 11/11/9 10/10/9
f 30/30/10 29/29/10 12/12/10 11/11/10
f 29/29/11 28/28/11 13/13/11 12/12/11
f 28/28/12 27/27/12 14/14/12 13/13/12
f 27/27/13 26/26/13 15/15/13 14/14/13
f 26/26/14 25/25/14 16/16/14 15/15/14
f 25/25/15 24/24/15 1/1/15 16/16/15
f 24/24/16 23/23/16 2/2/16 1/1/16
f 11/11/17 12/12/17 33/33/17
f 4/4/17 5/5/17 33/33/17
f 12/12/17 13/13/17 33/33/17
f 5/5/17 6/6/17 33/33/17
f 13/13/17 14/14/17 33/33/17
f 6/6/17 7/7/17 33/33/17
f 14/14/17 15/15/17 33/33/17
f 7/7/17 8/8/17 33/33/17
f 15/15/17 16/16/17 33/33/17
f 8/8/17 9/9/17 33/33/17
f 1/1/17 2/2/17 33/33/17
f 16/16/17 1/1/17 33/33/17
f 9/9/17 10/10/17 33/33/17
f 2/2/17 3/3/17 33/33/17
f 10/10/17 11/11/17 33/33/17
f 3/3/17 4/4/17 33/33/17
f 24/24/18 25/25/18 34/34/18
f 28/28/18 29/29/18 34/34/18
f 17/17/18 18/18/18 34/34/18
f 32/32/18 17/17/18 34/34/18
f 21/21/18 22/22/18 34/34/18
f 25/25/18 26/26/18 34/34/18
f 29/29/18 30/30/18 34/34/18
f 18/18/18 19/19/18 34/34/18
f 22/22/18 23/23/18 34/34/18
f 26/26/18 27/27/18 34/34/18
f 30/30/18 31/31/18 34/34/18
f 19/19/18 20/20/18 34/34/18
f 23/23/18 24/24/18 34/34/18
f 27/27/18 28/28/18 34/34/18
f 31/31/18 32/32/18 34/34/18
f 20/20/18 21/21/18 34/34/18
