# Blender v3.2.1 OBJ File: 'props.blend'
# www.blender.org
mtllib Prop_Dice.mtl
o Prop_Dice_Solid
v -0.430660 -0.577350 0.493523
v -0.493523 -0.430660 0.577350
v -0.577350 -0.493523 0.430660
v 0.430660 -0.577350 0.493523
v 0.577350 -0.430660 0.493523
v 0.493523 -0.430660 0.577350
v 0.430660 -0.577350 -0.493523
v 0.430660 -0.493523 -0.577350
v 0.577350 -0.430660 -0.493523
v -0.430660 -0.577350 -0.493523
v -0.577350 -0.493523 -0.430660
v -0.430660 -0.493523 -0.577350
v -0.493523 0.430660 0.577350
v -0.493523 0.577350 0.430660
v -0.577350 0.493523 0.430660
v 0.493523 0.430660 0.577350
v 0.577350 0.430660 0.493523
v 0.493523 0.577350 0.430660
v 0.577350 0.430660 -0.493523
v 0.430660 0.493523 -0.577350
v 0.493523 0.577350 -0.430660
v -0.577350 0.493523 -0.430660
v -0.493523 0.577350 -0.430660
v -0.430660 0.493523 -0.577350
v -0.534049 -0.577350 0.447446
v -0.447446 -0.577350 0.534049
v -0.447446 -0.534049 0.577350
v -0.534049 -0.447446 0.577350
v -0.577350 -0.447446 0.534049
v -0.577350 -0.534049 0.447446
v 0.447446 -0.577350 0.534049
v 0.534049 -0.577350 0.447446
v 0.577350 -0.534049 0.447446
v 0.577350 -0.447446 0.534049
v 0.534049 -0.447446 0.577350
v 0.447446 -0.534049 0.577350
v 0.534049 -0.577350 -0.447446
v 0.447446 -0.577350 -0.534049
v 0.447446 -0.534049 -0.577350
v 0.534049 -0.447446 -0.577350
v 0.577350 -0.447446 -0.534049
v 0.577350 -0.534049 -0.447446
v -0.447446 -0.577350 -0.534049
v -0.534049 -0.577350 -0.447446
v -0.577350 -0.534049 -0.447446
v -0.577350 -0.447446 -0.534049
v -0.534049 -0.447446 -0.577350
v -0.447446 -0.534049 -0.577350
v -0.534049 0.447446 0.577350
v -0.447446 0.577350 0.534049
v -0.534049 0.577350 0.447446
v -0.577350 0.534049 0.447446
v -0.577350 0.447446 0.534049
v -0.447446 0.534049 0.577350
v 0.447446 0.534049 0.577350
v 0.534049 0.447446 0.577350
v 0.577350 0.447446 0.534049
v 0.577350 0.534049 0.447446
v 0.534049 0.577350 0.447446
v 0.447446 0.577350 0.534049
v 0.577350 0.534049 -0.447446
v 0.577350 0.447446 -0.534049
v 0.534049 0.447446 -0.577350
v 0.447446 0.534049 -0.577350
v 0.447446 0.577350 -0.534049
v 0.534049 0.577350 -0.447446
v -0.577350 0.447446 -0.534049
v -0.577350 0.534049 -0.447446
v -0.534049 0.577350 -0.447446
v -0.447446 0.577350 -0.534049
v -0.447446 0.534049 -0.577350
v -0.534049 0.447446 -0.577350
v -0.493523 -0.577350 0.430660
v -0.430660 -0.493523 0.577350
v -0.577350 -0.430660 0.493523
v 0.493523 -0.577350 0.430660
v 0.577350 -0.493523 0.430660
v 0.430660 -0.493523 0.577350
v 0.493523 -0.577350 -0.430660
v 0.493523 -0.430660 -0.577350
v 0.577350 -0.493523 -0.430660
v -0.493523 -0.577350 -0.430660
v -0.577350 -0.430660 -0.493523
v -0.493523 -0.430660 -0.577350
v -0.430660 0.577350 0.493523
v -0.577350 0.430660 0.493523
v -0.430660 0.493523 0.577350
v 0.430660 0.493523 0.577350
v 0.577350 0.493523 0.430660
v 0.430660 0.577350 0.493523
v 0.577350 0.493523 -0.430660
v 0.493523 0.430660 -0.577350
v 0.430660 0.577350 -0.493523
v -0.577350 0.430660 -0.493523
v -0.430660 0.577350 -0.493523
v -0.493523 0.430660 -0.577350
vt 0.515991 0.218124
vt 0.485805 0.235552
vt 0.485805 0.183268
vt 0.515991 0.200696
vt 0.470712 0.226838
vt 0.470712 0.191982
vt 0.938187 0.015500
vt 0.920759 0.040147
vt 0.894617 0.003176
vt 0.929473 0.003176
vt 0.903331 0.040147
vt 0.885903 0.015500
vt 0.760482 0.235552
vt 0.730295 0.218124
vt 0.775575 0.191982
vt 0.775575 0.226838
vt 0.730295 0.200696
vt 0.760482 0.183267
vt 0.996824 0.015500
vt 0.979396 0.040147
vt 0.953253 0.003176
vt 0.988110 0.003176
vt 0.961968 0.040147
vt 0.944539 0.015500
vt 0.892447 0.610801
vt 0.892447 0.645658
vt 0.847167 0.619515
vt 0.877354 0.602087
vt 0.877354 0.654372
vt 0.847167 0.636944
vt 0.920759 0.294835
vt 0.938187 0.319482
vt 0.885903 0.319482
vt 0.903331 0.294835
vt 0.929473 0.331806
vt 0.894617 0.331806
vt 0.256408 0.191982
vt 0.256408 0.226838
vt 0.211128 0.200696
vt 0.241314 0.183268
vt 0.241314 0.235552
vt 0.211128 0.218124
vt 0.988110 0.331806
vt 0.953253 0.331806
vt 0.979396 0.294835
vt 0.996824 0.319482
vt 0.944539 0.319482
vt 0.961968 0.294835
vt 0.723943 0.200696
vt 0.723943 0.218124
vt 0.864458 0.003176
vt 0.879551 0.011890
vt 0.366736 0.011890
vt 0.381829 0.003176
vt 0.879551 0.406930
vt 0.864458 0.415644
vt 0.381829 0.415644
vt 0.366736 0.406930
vt 0.981330 0.421996
vt 0.996423 0.430710
vt 0.345290 0.003176
vt 0.360384 0.011890
vt 0.003176 0.218124
vt 0.003176 0.200696
vt 0.996423 0.825749
vt 0.981330 0.834463
vt 0.360384 0.406930
vt 0.345290 0.415644
vt 0.311043 0.686622
vt 0.294859 0.670438
vt 0.548971 0.670438
vt 0.532787 0.686621
vt 0.294859 0.448694
vt 0.548971 0.448693
vt 0.311043 0.432510
vt 0.532787 0.432510
vt 0.251618 0.713760
vt 0.267802 0.729944
vt 0.013690 0.729944
vt 0.029874 0.713760
vt 0.267802 0.951688
vt 0.013690 0.951688
vt 0.251618 0.967872
vt 0.029874 0.967872
vt 0.576885 0.729757
vt 0.593069 0.713574
vt 0.593069 0.967685
vt 0.576886 0.951502
vt 0.814813 0.713574
vt 0.814814 0.967685
vt 0.830997 0.729757
vt 0.830997 0.951502
vt 0.029793 0.686541
vt 0.013609 0.670357
vt 0.267721 0.670357
vt 0.251538 0.686541
vt 0.013609 0.448613
vt 0.267721 0.448613
vt 0.029793 0.432429
vt 0.251538 0.432429
vt 0.814198 0.432615
vt 0.830382 0.448799
vt 0.576270 0.448799
vt 0.592454 0.432615
vt 0.830382 0.670543
vt 0.576270 0.670543
vt 0.814198 0.686727
vt 0.592454 0.686727
vt 0.311124 0.967791
vt 0.294940 0.951607
vt 0.549052 0.951607
vt 0.532868 0.967791
vt 0.294940 0.729863
vt 0.549052 0.729863
vt 0.311124 0.713679
vt 0.532868 0.713679
vt 0.255940 0.703326
vt 0.278235 0.725622
vt 0.566452 0.725436
vt 0.588748 0.703140
vt 0.537109 0.697055
vt 0.306722 0.697055
vt 0.559404 0.674759
vt 0.255859 0.421996
vt 0.278155 0.444291
vt 0.278235 0.956009
vt 0.255940 0.978305
vt 0.559404 0.444372
vt 0.537109 0.422076
vt 0.840815 0.674864
vt 0.818520 0.697160
vt 0.278155 0.674679
vt 0.255859 0.696974
vt 0.306721 0.422076
vt 0.284426 0.444372
vt 0.588748 0.978119
vt 0.566453 0.955823
vt 0.588132 0.697160
vt 0.565837 0.674864
vt 0.025552 0.703327
vt 0.537190 0.703246
vt 0.559485 0.725541
vt 0.819135 0.703140
vt 0.841431 0.725436
vt 0.003257 0.956009
vt 0.003257 0.725622
vt 0.025552 0.978305
vt 0.003176 0.444291
vt 0.025472 0.421996
vt 0.559485 0.955929
vt 0.537190 0.978224
vt 0.003176 0.674679
vt 0.025472 0.696975
vt 0.818520 0.422182
vt 0.840815 0.444477
vt 0.306802 0.978224
vt 0.284507 0.955929
vt 0.819135 0.978119
vt 0.841431 0.955823
vt 0.284507 0.725541
vt 0.306802 0.703246
vt 0.565837 0.444477
vt 0.588132 0.422182
vt 0.284426 0.674759
vn -0.2257 -0.4330 0.8727
vn -0.4330 -0.2257 0.8727
vn -0.4330 -0.8727 0.2257
vn -0.2257 -0.8727 0.4330
vn -0.8727 -0.2257 0.4330
vn -0.8727 -0.4330 0.2257
vn 0.8727 -0.4330 0.2257
vn 0.8727 -0.2257 0.4330
vn 0.2257 -0.8727 0.4330
vn 0.4330 -0.8727 0.2257
vn 0.4330 -0.2257 0.8727
vn 0.2257 -0.4330 0.8727
vn 0.2257 -0.4330 -0.8727
vn 0.4330 -0.2257 -0.8727
vn 0.4330 -0.8727 -0.2257
vn 0.2257 -0.8727 -0.4330
vn 0.8727 -0.2257 -0.4330
vn 0.8727 -0.4330 -0.2257
vn -0.8727 -0.4330 -0.2257
vn -0.8727 -0.2257 -0.4330
vn -0.2257 -0.8727 -0.4330
vn -0.4330 -0.8727 -0.2257
vn -0.4330 -0.2257 -0.8727
vn -0.2257 -0.4330 -0.8727
vn -0.2257 0.8727 0.4330
vn -0.4330 0.8727 0.2257
vn -0.4330 0.2257 0.8727
vn -0.2257 0.4330 0.8727
vn -0.8727 0.4330 0.2257
vn -0.8727 0.2257 0.4330
vn 0.8727 0.2257 0.4330
vn 0.8727 0.4330 0.2257
vn 0.2257 0.4330 0.8727
vn 0.4330 0.2257 0.8727
vn 0.4330 0.8727 0.2257
vn 0.2257 0.8727 0.4330
vn 0.4330 0.2257 -0.8727
vn 0.2257 0.4330 -0.8727
vn 0.8727 0.4330 -0.2257
vn 0.8727 0.2257 -0.4330
vn 0.2257 0.8727 -0.4330
vn 0.4330 0.8727 -0.2257
vn -0.4330 0.8727 -0.2257
vn -0.2257 0.8727 -0.4330
vn -0.8727 0.2257 -0.4330
vn -0.8727 0.4330 -0.2257
vn -0.2257 0.4330 -0.8727
vn -0.4330 0.2257 -0.8727
vn 0.0000 -1.0000 -0.0000
vn 0.0000 0.0000 1.0000
vn -1.0000 0.0000 0.0000
vn 1.0000 0.0000 0.0000
vn 0.0000 0.0000 -1.0000
vn 0.0000 1.0000 0.0000
usemtl Prop_Dice_Mat
s 1
f 27/1/1 28/2/2 25/3/3 26/4/4
f 28/2/2 29/5/5 30/6/6 25/3/3
f 33/7/7 34/8/8 31/9/9 32/10/10
f 34/8/8 35/11/11 36/12/12 31/9/9
f 39/13/13 40/14/14 37/15/15 38/16/16
f 40/14/14 41/17/17 42/18/18 37/15/15
f 45/19/19 46/20/20 43/21/21 44/22/22
f 46/20/20 47/23/23 48/24/24 43/21/21
f 50/25/25 51/26/26 49/27/27 54/28/28
f 51/26/26 52/29/29 53/30/30 49/27/27
f 57/31/31 58/32/32 55/33/33 56/34/34
f 58/32/32 59/35/35 60/36/36 55/33/33
f 63/37/37 64/38/38 61/39/39 62/40/40
f 64/38/38 65/41/41 66/42/42 61/39/39
f 69/43/43 70/44/44 67/45/45 68/46/46
f 70/44/44 71/47/47 72/48/48 67/45/45
f 31/49/9 36/50/12 27/1/1 26/4/4
f 37/15/15 42/18/18 33/51/7 32/52/10
f 45/53/19 44/54/22 25/3/3 30/6/6
f 43/55/21 48/56/24 39/13/13 38/16/16
f 49/57/27 53/58/30 29/5/5 28/2/2
f 57/31/31 56/34/34 35/11/11 34/8/8
f 55/59/33 60/60/36 50/25/25 54/28/28
f 63/37/37 62/40/40 41/61/17 40/62/14
f 61/39/39 66/42/42 59/63/35 58/64/32
f 69/65/43 68/66/46 52/29/29 51/26/26
f 71/67/47 70/68/44 65/41/41 64/38/38
f 67/45/45 72/48/48 47/23/23 46/20/20
f 1/69/49 73/70/49 76/71/49 4/72/49
f 73/70/49 82/73/49 79/74/49 76/71/49
f 82/73/49 10/75/49 7/76/49 79/74/49
f 2/77/50 74/78/50 87/79/50 13/80/50
f 74/78/50 78/81/50 88/82/50 87/79/50
f 78/81/50 6/83/50 16/84/50 88/82/50
f 3/85/51 75/86/51 83/87/51 11/88/51
f 75/86/51 86/89/51 94/90/51 83/87/51
f 86/89/51 15/91/51 22/92/51 94/90/51
f 19/93/52 91/94/52 81/95/52 9/96/52
f 91/94/52 89/97/52 77/98/52 81/95/52
f 89/97/52 17/99/52 5/100/52 77/98/52
f 20/101/53 92/102/53 96/103/53 24/104/53
f 92/102/53 80/105/53 84/106/53 96/103/53
f 80/105/53 8/107/53 12/108/53 84/106/53
f 21/109/54 93/110/54 90/111/54 18/112/54
f 93/110/54 95/113/54 85/114/54 90/111/54
f 95/113/54 23/115/54 14/116/54 85/114/54
f 74/78/50 2/77/50 28/117/2 27/118/1
f 75/86/51 3/85/51 30/119/6 29/120/5
f 1/69/49 4/72/49 31/121/9 26/122/4
f 4/72/49 76/71/49 32/123/10 31/121/9
f 77/98/52 5/100/52 34/124/8 33/125/7
f 6/83/50 78/81/50 36/126/12 35/127/11
f 76/71/49 79/74/49 37/128/15 32/123/10
f 79/74/49 7/76/49 38/129/16 37/128/15
f 8/107/53 80/105/53 40/130/14 39/131/13
f 9/96/52 81/95/52 42/132/18 41/133/17
f 7/76/49 10/75/49 43/134/21 38/129/16
f 10/75/49 82/73/49 44/135/22 43/134/21
f 11/88/51 83/87/51 46/136/20 45/137/19
f 84/106/53 12/108/53 48/138/24 47/139/23
f 2/77/50 13/80/50 49/140/27 28/117/2
f 85/114/54 14/116/54 51/141/26 50/142/25
f 15/91/51 86/89/51 53/143/30 52/144/29
f 87/79/50 88/82/50 55/145/33 54/146/28
f 88/82/50 16/84/50 56/147/34 55/145/33
f 17/99/52 89/97/52 58/148/32 57/149/31
f 18/112/54 90/111/54 60/150/36 59/151/35
f 89/97/52 91/94/52 61/152/39 58/148/32
f 91/94/52 19/93/52 62/153/40 61/152/39
f 92/102/53 20/101/53 64/154/38 63/155/37
f 93/110/54 21/109/54 66/156/42 65/157/41
f 83/87/51 94/90/51 67/158/45 46/136/20
f 94/90/51 22/92/51 68/159/46 67/158/45
f 23/115/54 95/113/54 70/160/44 69/161/43
f 24/104/53 96/103/53 72/162/48 71/163/47
f 80/105/53 92/102/53 63/155/37 40/130/14
f 19/93/52 9/96/52 41/133/17 62/153/40
f 13/80/50 87/79/50 54/146/28 49/140/27
f 82/73/49 73/70/49 25/164/3 44/135/22
f 78/81/50 74/78/50 27/118/1 36/126/12
f 90/111/54 85/114/54 50/142/25 60/150/36
f 3/85/51 11/88/51 45/137/19 30/119/6
f 14/116/54 23/115/54 69/161/43 51/141/26
f 81/95/52 77/98/52 33/125/7 42/132/18
f 96/103/53 84/106/53 47/139/23 72/162/48
f 20/101/53 24/104/53 71/163/47 64/154/38
f 86/89/51 75/86/51 29/120/5 53/143/30
f 22/92/51 15/91/51 52/144/29 68/159/46
f 95/113/54 93/110/54 65/157/41 70/160/44
f 21/109/54 18/112/54 59/151/35 66/156/42
f 12/108/53 8/107/53 39/131/13 48/138/24
f 5/100/52 17/99/52 57/149/31 34/124/8
f 16/84/50 6/83/50 35/127/11 56/147/34
f 73/70/49 1/69/49 26/122/4 25/164/3
