# Blender v3.2.1 OBJ File: 'room.blend'
# www.blender.org
mtllib Table_Boundaries.mtl
o Table_Placeholder_Cube
v -0.832375 1.000000 -1.832375
v 0.832375 1.000000 1.832375
v -0.832375 1.000000 1.832375
v 0.832375 1.000000 -1.832375
v 1.000000 1.000000 -2.000000
v -1.000000 1.000000 2.000000
v 1.000000 1.000000 2.000000
v -1.000000 1.000000 -2.000000
v -0.832375 0.756091 -1.832375
v 0.832375 0.756091 1.832375
v -0.832375 0.756091 1.832375
v 0.832375 0.756091 -1.832375
v -0.832375 1.000000 -1.822322
v 0.832375 1.000000 -1.822322
v 1.000000 1.000000 -1.989028
v -1.000000 1.000000 -1.989028
v -0.832375 0.756091 -1.822322
v 0.832375 0.756091 -1.822322
v 0.832375 1.000000 1.825747
v 1.000000 1.000000 1.992766
v 0.832375 0.756091 1.825747
v -0.832375 1.000000 1.825747
v -1.000000 1.000000 1.992766
v -0.832375 0.756091 1.825747
v 0.830572 1.000000 -1.832375
v 0.830572 1.000000 1.832375
v 0.997834 1.000000 -2.000000
v 0.997834 1.000000 2.000000
v 0.830572 0.756091 -1.832375
v 0.830572 0.756091 1.832375
v 0.823612 0.756091 -1.815363
v 0.823612 0.756091 1.818787
v -0.828128 1.000000 1.832375
v -0.994898 1.000000 2.000000
v -0.828128 0.756091 1.832375
v -0.828128 1.000000 -1.832375
v -0.994898 1.000000 -2.000000
v -0.828128 0.756091 -1.832375
v -0.821168 0.756091 -1.815363
v -0.821168 0.756091 1.818787
v -0.828128 0.756091 -1.822322
v 0.830572 0.756091 -1.822322
v -0.828128 0.756091 1.825747
v 0.830572 0.756091 1.825747
v 0.832375 0.988951 -1.832375
v 0.832375 0.767140 -1.832375
v 0.832375 0.767140 1.832375
v 0.832375 0.988951 1.832375
v -0.832375 0.988951 1.832375
v -0.832375 0.767140 1.832375
v -0.832375 0.767140 -1.832375
v -0.832375 0.988951 -1.832375
v -0.832375 0.988951 -1.822322
v -0.832375 0.767140 -1.822322
v 0.832375 0.988951 -1.822322
v 0.832375 0.767140 -1.822322
v 0.832375 0.988951 1.825747
v 0.832375 0.767140 1.825747
v -0.832375 0.988951 1.825747
v -0.832375 0.767140 1.825747
v 0.830572 0.988951 1.832375
v 0.830572 0.767140 1.832375
v 0.830572 0.988951 -1.832375
v 0.830572 0.767140 -1.832375
v -0.828128 0.988951 1.832375
v -0.828128 0.767140 1.832375
v -0.828128 0.988951 -1.832375
v -0.828128 0.767140 -1.832375
v 1.000000 0.964396 -2.000000
v 1.000000 0.964396 2.000000
v -1.000000 0.964396 -2.000000
v -1.000000 0.964396 2.000000
v -1.000000 0.964396 -1.989028
v 1.000000 0.964396 -1.989028
v -1.000000 0.964396 1.992766
v 1.000000 0.964396 1.992766
v 0.997834 0.964396 2.000000
v 0.997834 0.964396 -2.000000
v -0.994898 0.964396 -2.000000
v -0.994898 0.964396 2.000000
vt 0.873414 0.032169
vt 0.873548 0.032169
vt 0.869141 0.036576
vt 0.869029 0.036576
vt 0.820964 0.032457
vt 0.820964 0.032169
vt 0.825372 0.036576
vt 0.825372 0.036840
vt 0.821021 0.137335
vt 0.820964 0.137335
vt 0.825371 0.132928
vt 0.825419 0.132928
vt 0.910527 0.128785
vt 0.910527 0.128521
vt 0.912665 0.128521
vt 0.912665 0.128785
vt 0.873548 0.137145
vt 0.873548 0.137335
vt 0.869141 0.132928
vt 0.869141 0.132754
vt 0.769317 0.137392
vt 0.768381 0.137392
vt 0.768381 0.137335
vt 0.769317 0.137335
vt 0.918253 0.032359
vt 0.917317 0.032359
vt 0.917317 0.032169
vt 0.918253 0.032169
vt 0.944545 0.032457
vt 0.943609 0.032457
vt 0.943609 0.032169
vt 0.944545 0.032169
vt 0.874484 0.128655
vt 0.873548 0.128655
vt 0.873548 0.128521
vt 0.874484 0.128521
vt 0.904115 0.128695
vt 0.904115 0.128521
vt 0.906252 0.128521
vt 0.906252 0.128695
vt 0.805361 0.137447
vt 0.805361 0.137335
vt 0.807498 0.137335
vt 0.807498 0.137447
vt 0.798948 0.137383
vt 0.798948 0.137335
vt 0.801085 0.137335
vt 0.801085 0.137383
vt 0.133361 0.161550
vt 0.133361 0.161724
vt 0.133313 0.161724
vt 0.133313 0.161550
vt 0.133361 0.065372
vt 0.133361 0.065636
vt 0.133313 0.065636
vt 0.133313 0.065372
vt 0.904115 0.224874
vt 0.904115 0.224609
vt 0.906252 0.224609
vt 0.906252 0.224874
vt 0.944545 0.137145
vt 0.943609 0.137145
vt 0.918253 0.137335
vt 0.917317 0.137335
vt 0.917317 0.137047
vt 0.918253 0.137047
vt 0.873548 0.032457
vt 0.869141 0.036840
vt 0.910527 0.224699
vt 0.912665 0.224699
vt 0.820964 0.137145
vt 0.825371 0.132754
vt 0.910527 0.224874
vt 0.912665 0.224874
vt 0.944545 0.137335
vt 0.943609 0.137335
vt 0.176788 0.065819
vt 0.176788 0.161367
vt 0.133544 0.161367
vt 0.133544 0.065819
vt 0.176971 0.065372
vt 0.176971 0.065636
vt 0.176971 0.161550
vt 0.176971 0.161724
vt 0.798948 0.180993
vt 0.801085 0.180993
vt 0.805361 0.181104
vt 0.805361 0.181057
vt 0.807498 0.181057
vt 0.807498 0.181104
vt 0.874484 0.181104
vt 0.873548 0.181104
vt 0.873548 0.181047
vt 0.874484 0.181047
vt 0.769317 0.189785
vt 0.768381 0.189785
vt 0.873414 0.137335
vt 0.869029 0.132928
vt 0.821021 0.032169
vt 0.825419 0.036576
vt 0.769317 0.189919
vt 0.768381 0.189919
vt 0.798948 0.181104
vt 0.801085 0.181104
vt 0.177082 0.161550
vt 0.177082 0.161724
vt 0.177082 0.065372
vt 0.177082 0.065636
vt 0.801085 0.181057
vt 0.801085 0.137447
vt 0.803223 0.137447
vt 0.803223 0.181057
vt 0.794673 0.181104
vt 0.794673 0.180993
vt 0.796810 0.180993
vt 0.796810 0.181104
vt 0.801085 0.181104
vt 0.803223 0.181104
vt 0.794673 0.137383
vt 0.796810 0.137383
vt 0.899839 0.224609
vt 0.899839 0.128695
vt 0.901977 0.128695
vt 0.901977 0.224609
vt 0.906252 0.224874
vt 0.906252 0.224699
vt 0.908390 0.224699
vt 0.908390 0.224874
vt 0.906252 0.128785
vt 0.908390 0.128785
vt 0.899839 0.224874
vt 0.901977 0.224874
vt 0.794673 0.137335
vt 0.796810 0.137335
vt 0.801085 0.137335
vt 0.803223 0.137335
vt 0.899839 0.128521
vt 0.901977 0.128521
vt 0.906252 0.128521
vt 0.908390 0.128521
vn 0.0000 0.7071 -0.7071
vn -0.5774 0.5774 -0.5774
vn 0.3015 0.9045 0.3015
vn 0.0000 0.7071 0.7071
vn 0.7071 0.7071 0.0000
vn 0.5774 0.5774 -0.5774
vn -0.3015 0.9045 0.3015
vn -0.7071 0.7071 0.0000
vn 0.5774 0.5774 0.5774
vn -0.3015 0.9045 -0.3015
vn -1.0000 0.0000 0.0000
vn -0.7071 0.0000 0.7071
vn -0.5774 0.5774 0.5774
vn 0.3015 0.9045 -0.3015
vn 0.0000 0.0000 -1.0000
vn 0.7071 0.0000 -0.7071
vn 1.0000 0.0000 0.0000
vn 0.7071 0.0000 0.7071
vn -0.7071 0.0000 -0.7071
vn 0.0000 0.0000 1.0000
vn 0.0000 1.0000 0.0000
usemtl Room_Mat
s 1
f 37/1/1 8/2/2 1/3/3 36/4/4
f 15/5/5 5/6/6 4/7/7 14/8/8
f 28/9/4 7/10/9 2/11/10 26/12/1
f 56/13/11 46/14/12 12/15/13 18/16/8
f 23/17/8 6/18/13 3/19/14 22/20/5
f 78/21/15 27/22/1 5/23/6 69/24/16
f 76/25/17 20/26/5 7/27/9 70/28/18
f 73/29/11 16/30/8 8/31/2 71/32/19
f 80/33/20 34/34/4 6/35/13 72/36/12
f 60/37/17 50/38/16 11/39/6 24/40/5
f 68/41/20 51/42/18 9/43/9 38/44/4
f 62/45/15 47/46/19 10/47/2 30/48/1
f 44/49/21 30/50/1 10/51/2 21/52/8
f 29/53/4 42/54/21 18/55/8 12/56/13
f 51/57/18 54/58/17 17/59/5 9/60/9
f 75/61/11 23/62/8 16/30/8 73/29/11
f 69/63/16 5/64/6 15/65/5 74/66/17
f 8/2/2 16/67/8 13/68/5 1/3/3
f 58/69/11 56/13/11 18/16/8 21/70/8
f 20/71/5 15/5/5 14/8/8 19/72/8
f 7/10/9 20/71/5 19/72/8 2/11/10
f 47/73/19 58/69/11 21/70/8 10/74/2
f 72/75/12 6/76/13 23/62/8 75/61/11
f 42/54/21 44/49/21 21/52/8 18/55/8
f 54/58/17 60/37/17 24/40/5 17/59/5
f 74/66/17 15/65/5 20/26/5 76/25/17
f 16/67/8 23/17/8 22/20/5 13/68/5
f 39/77/21 40/78/21 32/79/21 31/80/21
f 38/81/4 41/82/21 42/54/21 29/53/4
f 43/83/21 35/84/1 30/50/1 44/49/21
f 66/85/15 62/45/15 30/48/1 35/86/1
f 46/87/12 64/88/20 29/89/4 12/90/13
f 70/91/18 7/92/9 28/93/4 77/94/20
f 79/95/15 37/96/1 27/22/1 78/21/15
f 34/97/4 28/9/4 26/12/1 33/98/1
f 5/6/6 27/99/1 25/100/4 4/7/7
f 6/18/13 34/97/4 33/98/1 3/19/14
f 71/101/19 8/102/2 37/96/1 79/95/15
f 50/103/16 66/85/15 35/86/1 11/104/6
f 24/105/5 11/106/6 35/84/1 43/83/21
f 9/107/9 17/108/5 41/82/21 38/81/4
f 17/108/5 24/105/5 43/83/21 41/82/21
f 64/88/20 68/41/20 38/44/4 29/89/4
f 77/94/20 28/93/4 34/34/4 80/33/20
f 27/99/1 37/1/1 36/4/4 25/100/4
f 39/77/21 31/80/21 42/54/21 41/82/21
f 32/79/21 40/78/21 43/83/21 44/49/21
f 31/80/21 32/79/21 44/49/21 42/54/21
f 40/78/21 39/77/21 41/82/21 43/83/21
f 25/109/4 36/110/4 67/111/20 63/112/20
f 63/112/20 67/111/20 68/41/20 64/88/20
f 3/113/14 33/114/1 65/115/15 49/116/16
f 49/116/16 65/115/15 66/85/15 50/103/16
f 4/117/7 25/109/4 63/112/20 45/118/12
f 45/118/12 63/112/20 64/88/20 46/87/12
f 33/114/1 26/119/1 61/120/15 65/115/15
f 65/115/15 61/120/15 62/45/15 66/85/15
f 13/121/5 22/122/5 59/123/17 53/124/17
f 53/124/17 59/123/17 60/37/17 54/58/17
f 2/125/10 19/126/8 57/127/11 48/128/19
f 48/128/19 57/127/11 58/69/11 47/73/19
f 19/126/8 14/129/8 55/130/11 57/127/11
f 57/127/11 55/130/11 56/13/11 58/69/11
f 1/131/3 13/121/5 53/124/17 52/132/18
f 52/132/18 53/124/17 54/58/17 51/57/18
f 26/119/1 2/133/10 48/134/19 61/120/15
f 61/120/15 48/134/19 47/46/19 62/45/15
f 36/110/4 1/135/3 52/136/18 67/111/20
f 67/111/20 52/136/18 51/42/18 68/41/20
f 22/122/5 3/137/14 49/138/16 59/123/17
f 59/123/17 49/138/16 50/38/16 60/37/17
f 14/129/8 4/139/7 45/140/12 55/130/11
f 55/130/11 45/140/12 46/14/12 56/13/11
